<?xml version="1.0" encoding="UTF-8"?>
<svg xmlns="http://www.w3.org/2000/svg" id="Calque_1" data-name="Calque 1" width="124.63" height="186.02" viewBox="0 0 124.63 186.02">
  <defs>
    <style>.cls-1{fill:#7e807a;}</style>
  </defs>
  <path class="cls-1" d="M86.32,170.1,85,168.77a.64.64,0,0,0-.78-.1l-1.61.94a2.59,2.59,0,0,1-2,.28,2.66,2.66,0,0,1-1.6-1.24L78.1,167a.64.64,0,0,0-.73-.3l-1.8.5a2.63,2.63,0,0,1-3.23-1.84v0l-.47-1.81a.64.64,0,0,0-.62-.48H70.4l-7.59,15,10.73-1.73L78.48,186l8-15.76Z"></path>
  <path class="cls-1" d="M105.16,163.06h0a.63.63,0,0,0-.61.48l-.47,1.81a2.63,2.63,0,0,1-1.23,1.61,2.55,2.55,0,0,1-2,.26l-1.8-.5a.63.63,0,0,0-.73.3l-.92,1.63a2.66,2.66,0,0,1-1.6,1.24,2.59,2.59,0,0,1-2-.28l-1.61-.94a.65.65,0,0,0-.79.1L90.22,170l7.51,15.86,5.21-9.55,10.68,2L106.4,163Z"></path>
  <path class="cls-1" d="M116,142.76a1.64,1.64,0,0,0,0-2.32h0l-1.34-1.31a1.62,1.62,0,0,1-.26-2l1-1.61a1.63,1.63,0,0,0-.59-2.24h0l-1.63-.92a1.63,1.63,0,0,1-.77-1.85l.5-1.8a1.64,1.64,0,0,0-1.15-2h0l-1.82-.48a1.61,1.61,0,0,1-1.22-1.59v-1.87a1.63,1.63,0,0,0-1.6-1.64H105.2a1.61,1.61,0,0,1-1.59-1.22l-.47-1.81a1.63,1.63,0,0,0-2-1.16h0l-1.8.5a1.62,1.62,0,0,1-1.85-.77L96.57,115a1.64,1.64,0,0,0-2.24-.61h0l-1.61,1a1.62,1.62,0,0,1-2-.26l-1.31-1.34a1.64,1.64,0,0,0-2.32,0h0l-1.31,1.34a1.62,1.62,0,0,1-2,.26l-1.61-1a1.63,1.63,0,0,0-2.24.59h0L79,116.65a1.63,1.63,0,0,1-1.85.77l-1.8-.5a1.64,1.64,0,0,0-2,1.15h0l-.47,1.81a1.61,1.61,0,0,1-1.59,1.22H69.4a1.63,1.63,0,0,0-1.64,1.6v1.9a1.61,1.61,0,0,1-1.22,1.59l-1.81.47a1.63,1.63,0,0,0-1.16,2h0l.5,1.8a1.63,1.63,0,0,1-.77,1.85l-1.63.92a1.64,1.64,0,0,0-.61,2.24h0l1,1.61a1.62,1.62,0,0,1-.26,2l-1.34,1.31a1.64,1.64,0,0,0,0,2.32h0l1.34,1.31a1.62,1.62,0,0,1,.26,2l-1,1.61a1.63,1.63,0,0,0,.59,2.24h0l1.63.92a1.63,1.63,0,0,1,.77,1.85l-.5,1.8a1.64,1.64,0,0,0,1.15,2h0l1.81.47a1.61,1.61,0,0,1,1.22,1.59v1.87a1.63,1.63,0,0,0,1.6,1.64h1.91a1.61,1.61,0,0,1,1.59,1.22l.47,1.81a1.63,1.63,0,0,0,2,1.16h0l1.8-.5a1.63,1.63,0,0,1,1.85.77l.92,1.63a1.64,1.64,0,0,0,2.24.61h0l1.61-1a1.62,1.62,0,0,1,2,.26l1.31,1.34a1.64,1.64,0,0,0,2.32,0h0L90.71,168a1.62,1.62,0,0,1,2-.26l1.61,1a1.63,1.63,0,0,0,2.24-.59h0l.92-1.63a1.62,1.62,0,0,1,1.85-.77l1.8.5a1.64,1.64,0,0,0,2-1.15h0l.47-1.81a1.61,1.61,0,0,1,1.59-1.22h1.87a1.63,1.63,0,0,0,1.64-1.6v-1.84a1.61,1.61,0,0,1,1.22-1.59l1.81-.47a1.63,1.63,0,0,0,1.16-2h0l-.5-1.8a1.63,1.63,0,0,1,.77-1.85l1.63-.92a1.64,1.64,0,0,0,.61-2.24h0l-1-1.61a1.62,1.62,0,0,1,.26-2Zm-7.66,7.35a21.95,21.95,0,1,1,1.72-8.52A21.93,21.93,0,0,1,108.35,150.11Z"></path>
  <path class="cls-1" d="M88.19,121.12a20.48,20.48,0,1,0,20.48,20.49A20.48,20.48,0,0,0,88.19,121.12ZM83.7,154.33l-10.19-10,3.18-3.22,6.82,6.71,15.72-17.41,3.36,3Z"></path>
  <path class="cls-1" d="M34.8,26.46h4.57v1.73H32.65V17.74H34.8Z"></path>
  <path class="cls-1" d="M43.26,28.19H41.11V17.74h2.15Z"></path>
  <path class="cls-1" d="M53.83,24.71a3.69,3.69,0,0,1-1.25,2.66,4.36,4.36,0,0,1-3,1A3.9,3.9,0,0,1,46.42,27a5.51,5.51,0,0,1-1.15-3.71v-.69A6.19,6.19,0,0,1,45.8,20a4,4,0,0,1,1.52-1.77,4.75,4.75,0,0,1,5.21.36,4,4,0,0,1,1.27,2.72H51.65a2.21,2.21,0,0,0-.56-1.47,2.14,2.14,0,0,0-1.48-.45,1.82,1.82,0,0,0-1.61.77,4.35,4.35,0,0,0-.55,2.39v.79A4.63,4.63,0,0,0,48,25.78a1.78,1.78,0,0,0,1.61.78,2.06,2.06,0,0,0,1.49-.46,2,2,0,0,0,.57-1.41Z"></path>
  <path class="cls-1" d="M61.93,23.66H57.8v2.8h4.85v1.73h-7V17.74h7v1.75H57.82V22h4.11Z"></path>
  <path class="cls-1" d="M72.75,28.19H70.59L66.4,21.32v6.87H64.25V17.74H66.4l4.2,6.89V17.74h2.15Z"></path>
  <path class="cls-1" d="M83.2,24.71a3.73,3.73,0,0,1-1.27,2.66,4.41,4.41,0,0,1-3,1A3.9,3.9,0,0,1,75.77,27a5.51,5.51,0,0,1-1.15-3.71v-.69A6.19,6.19,0,0,1,75.15,20a4,4,0,0,1,1.52-1.77,4.76,4.76,0,0,1,5.26.42,4,4,0,0,1,1.27,2.72H81.05a2.21,2.21,0,0,0-.56-1.47A2.14,2.14,0,0,0,79,19.41a1.82,1.82,0,0,0-1.61.77,4.35,4.35,0,0,0-.55,2.39v.79a4.63,4.63,0,0,0,.51,2.48,1.82,1.82,0,0,0,1.62.78,2.11,2.11,0,0,0,1.49-.46A2,2,0,0,0,81,24.75Z"></path>
  <path class="cls-1" d="M91.27,23.66H87.13v2.8H92v1.73H85V17.74h7v1.75H87.13V22h4.14Z"></path>
  <rect class="cls-1" x="16.08" y="43.98" width="96.33" height="2.11" rx="0.96"></rect>
  <rect class="cls-1" x="16.08" y="53.08" width="70.91" height="2.11" rx="0.96"></rect>
  <rect class="cls-1" x="16.08" y="62.17" width="96.33" height="2.11" rx="0.96"></rect>
  <rect class="cls-1" x="16.08" y="71.27" width="96.33" height="2.11" rx="0.96"></rect>
  <rect class="cls-1" x="16.08" y="80.37" width="85.81" height="2.11" rx="0.96"></rect>
  <rect class="cls-1" x="16.08" y="89.46" width="96.33" height="2.11" rx="0.96"></rect>
  <rect class="cls-1" x="16.08" y="98.56" width="96.33" height="2.11" rx="0.96"></rect>
  <rect class="cls-1" x="16.08" y="107.65" width="59.08" height="2.11" rx="0.96"></rect>
  <polygon class="cls-1" points="91.68 175.44 90.74 173.45 85.95 173.45 84.94 175.44 91.68 175.44"></polygon>
  <polygon class="cls-1" points="0 0 0 175.44 63.01 175.44 64.01 173.45 1.98 173.45 1.98 1.98 122.65 1.98 122.65 173.45 112.39 173.45 113.33 175.44 124.63 175.44 124.63 0 0 0"></polygon>
</svg>
